<?xml version="1.0" encoding="UTF-8"?>
<svg id="Livello_2" data-name="Livello 2" xmlns="http://www.w3.org/2000/svg" viewBox="0 0 295 143">
  <defs></defs>
  <g id="Livello_1-2" data-name="Livello 1">
    <g>
      <polygon class="cls-1" points="292.88 46.1 292.88 74.36 280.36 74.36 280.36 56.59 280.36 46.1 292.88 46.1"></polygon>
      <path class="cls-1" d="M286.62,31.69c3.48,0,6.26,2.84,6.26,6.32s-2.78,6.26-6.26,6.26-6.26-2.85-6.26-6.26,2.78-6.32,6.26-6.32Z"></path>
      <path class="cls-1" d="M278.47,63.86v10.5h-14.35c-6.86,0-12.56-4.84-13.87-11.3-.19-.92-.29-1.88-.29-2.86s.1-1.92.29-2.84c1.31-6.42,7.01-11.26,13.87-11.26h14.35v10.49h-12.33c-2.02,0-3.66,1.65-3.66,3.61s1.64,3.66,3.66,3.66h12.33Z"></path>
      <path class="cls-1" d="M248.07,63.86v10.5h-14.35c-7.84,0-14.16-6.32-14.16-14.16s6.32-14.1,14.16-14.1h14.35v10.49h-12.33c-2.02,0-3.66,1.65-3.66,3.61s1.64,3.66,3.66,3.66h12.33Z"></path>
      <path class="cls-1" d="M217.67,46.1v28.26h-12.52v-1.71c-2.02,1.07-4.36,1.71-6.82,1.71-8.03,0-14.48-6.45-14.48-14.48v-13.78h12.52v13.4c0,2.4,1.96,4.36,4.42,4.36s4.36-1.96,4.36-4.36v-13.4h12.52Z"></path>
      <path class="cls-1" d="M192.79,24.41c.01-.32.05-.64.12-.95-.08.31-.12.63-.13.96v.13c0,.38.05.74.13,1.1-.08-.36-.12-.73-.12-1.11v-.13ZM193.29,22.37c.2-.4.45-.77.74-1.11-.3.34-.54.71-.74,1.11ZM200.45,29.69c-.11.03-.21.06-.32.08.1-.02.21-.04.31-.07.14-.04.27-.08.41-.13-.13.04-.26.08-.4.12ZM201.98,29.05c-.12.07-.24.14-.36.2.12-.06.24-.12.36-.19.37-.22.71-.47,1.02-.76-.31.28-.65.53-1.02.75ZM201.98,29.05c-.12.07-.24.14-.36.2.12-.06.24-.12.36-.19.37-.22.71-.47,1.02-.76-.31.28-.65.53-1.02.75ZM200.45,29.69c-.11.03-.21.06-.32.08.1-.02.21-.04.31-.07.14-.04.27-.08.41-.13-.13.04-.26.08-.4.12ZM193.29,22.37c.2-.4.45-.77.74-1.11-.3.34-.54.71-.74,1.11ZM192.79,24.41c.01-.32.05-.64.12-.95-.08.31-.12.63-.13.96v.13c0,.38.05.74.13,1.1-.08-.36-.12-.73-.12-1.11v-.13ZM192.79,24.41c.01-.32.05-.64.12-.95-.08.31-.12.63-.13.96v.13c0,.38.05.74.13,1.1-.08-.36-.12-.73-.12-1.11v-.13ZM193.29,22.37c.2-.4.45-.77.74-1.11-.3.34-.54.71-.74,1.11ZM200.45,29.69c-.11.03-.21.06-.32.08.1-.02.21-.04.31-.07.14-.04.27-.08.41-.13-.13.04-.26.08-.4.12ZM201.98,29.05c-.12.07-.24.14-.36.2.12-.06.24-.12.36-.19.37-.22.71-.47,1.02-.76-.31.28-.65.53-1.02.75ZM201.98,29.05c-.12.07-.24.14-.36.2.12-.06.24-.12.36-.19.37-.22.71-.47,1.02-.76-.31.28-.65.53-1.02.75ZM200.13,29.77c.1-.02.21-.04.31-.07.14-.04.27-.08.41-.13-.13.04-.26.08-.4.12-.11.03-.21.06-.32.08ZM194.03,21.26c-.3.34-.54.71-.74,1.11.2-.4.45-.77.74-1.11ZM192.91,23.46c-.08.31-.12.63-.13.96v.13c0,.38.05.74.13,1.1-.08-.36-.12-.73-.12-1.11v-.13c.01-.32.05-.64.12-.95ZM198.74,9.52c-8.22,0-14.92,6.7-14.92,14.92s6.7,14.98,14.92,14.98,14.92-6.7,14.92-14.98-6.64-14.92-14.92-14.92ZM206.96,24.55c0,1.07-.23,2.1-.69,3.07-.66,1.4-1.75,2.57-3.14,3.39-.65.38-1.35.68-2.1.88-.73.2-1.5.3-2.29.3s-1.5-.1-2.22-.28c-.74-.19-1.44-.48-2.09-.85-1.43-.82-2.53-1.99-3.21-3.41-.47-.98-.71-2.02-.71-3.1,0-.08,0-.17.01-.25.14-4.15,3.74-7.39,8.22-7.39s8.07,3.24,8.22,7.38v.26ZM201.62,29.25c.12-.06.24-.12.36-.19.37-.22.71-.47,1.02-.76-.31.28-.65.53-1.02.75-.12.07-.24.14-.36.2ZM200.13,29.77c.1-.02.21-.04.31-.07.14-.04.27-.08.41-.13-.13.04-.26.08-.4.12-.11.03-.21.06-.32.08ZM194.03,21.26c-.3.34-.54.71-.74,1.11.2-.4.45-.77.74-1.11ZM192.91,23.46c-.08.31-.12.63-.13.96v.13c0,.38.05.74.13,1.1-.08-.36-.12-.73-.12-1.11v-.13c.01-.32.05-.64.12-.95ZM192.79,24.41c.01-.32.05-.64.12-.95-.08.31-.12.63-.13.96v.13c0,.38.05.74.13,1.1-.08-.36-.12-.73-.12-1.11v-.13ZM193.29,22.37c.2-.4.45-.77.74-1.11-.3.34-.54.71-.74,1.11ZM200.45,29.69c-.11.03-.21.06-.32.08.1-.02.21-.04.31-.07.14-.04.27-.08.41-.13-.13.04-.26.08-.4.12ZM201.98,29.05c-.12.07-.24.14-.36.2.12-.06.24-.12.36-.19.37-.22.71-.47,1.02-.76-.31.28-.65.53-1.02.75ZM201.98,29.05c-.12.07-.24.14-.36.2.12-.06.24-.12.36-.19.37-.22.71-.47,1.02-.76-.31.28-.65.53-1.02.75ZM200.45,29.69c-.11.03-.21.06-.32.08.1-.02.21-.04.31-.07.14-.04.27-.08.41-.13-.13.04-.26.08-.4.12ZM193.29,22.37c.2-.4.45-.77.74-1.11-.3.34-.54.71-.74,1.11ZM192.79,24.41c.01-.32.05-.64.12-.95-.08.31-.12.63-.13.96v.13c0,.38.05.74.13,1.1-.08-.36-.12-.73-.12-1.11v-.13Z"></path>
      <path class="cls-1" d="M204.69,24.37c-.01-.18-.02-.36-.05-.53-.04-.26-.1-.52-.18-.77-.04-.13-.09-.25-.13-.38-.1-.23-.21-.47-.35-.69-.21-.34-.45-.65-.72-.94-.12-.13-.24-.25-.38-.37-.27-.24-.56-.45-.87-.63-.16-.09-.32-.18-.49-.26-.1-.05-.21-.09-.32-.14-.75-.32-1.59-.49-2.46-.49-.79,0-1.56.14-2.25.4-.23.08-.46.18-.67.29h-.01c-.28.14-.56.31-.81.5-.14.11-.29.23-.43.35-.13.12-.26.24-.38.37-.06.06-.11.12-.16.18-.29.34-.54.71-.74,1.11-.08.16-.14.32-.2.48-.04.11-.08.23-.11.35-.03.08-.06.17-.07.26-.07.31-.11.63-.12.95v.13c0,.38.04.75.12,1.11.08.36.2.7.36,1.03.06.12.12.25.19.36.21.36.47.7.76,1,.39.41.83.76,1.33,1.05.47.27.99.48,1.54.62.13.04.26.07.4.09.27.05.54.09.82.11.14.01.28.01.43.01.48,0,.94-.05,1.39-.15.11-.02.21-.05.32-.08.14-.04.27-.08.4-.12.26-.09.52-.2.77-.32.12-.06.24-.13.36-.2.37-.22.71-.47,1.02-.75.2-.19.39-.39.57-.61.17-.21.32-.44.46-.68.07-.11.13-.24.19-.36.07-.16.14-.32.2-.49.18-.51.28-1.05.28-1.62,0-.05-.01-.11-.01-.17ZM201.46,25.06c-.22.7-.61,1.24-1.08,1.45-.14.07-.3.11-.46.11-.14,0-.27-.03-.4-.08-.5-.2-.92-.76-1.15-1.51-.12-.41-.2-.87-.2-1.36,0-1.63.79-2.95,1.75-2.95s1.75,1.32,1.75,2.95c0,.5-.08.98-.21,1.39Z"></path>
      <path class="cls-1" d="M181.96,74.36l-.03-56.14h-12.52l.03,27.88h-6c-7.84,0-14.16,6.32-14.16,14.1s6.32,14.16,14.16,14.16h2.97l3.03-6.45v6.45h12.52ZM165.46,63.86c-2.02,0-3.67-1.64-3.67-3.66s1.65-3.61,3.67-3.61h3.98v7.27h-3.98Z"></path>
      <path class="cls-1" d="M175.67,2.23c3.48,0,6.26,2.84,6.26,6.32s-2.78,6.25-6.26,6.25-6.26-2.84-6.26-6.25,2.78-6.32,6.26-6.32Z"></path>
      <path class="cls-1" d="M155,2.83v7.52h-6c-7.84,0-14.16,6.32-14.16,14.09s6.32,14.16,14.16,14.16h2.97l3.03-6.44v6.44h12.52V2.83h-12.52ZM155,28.11h-3.98c-2.02,0-3.66-1.64-3.66-3.67s1.64-3.6,3.66-3.6h3.98v7.27Z"></path>
      <path class="cls-1" d="M151.81,49.26l-7.46,9.93c-.7-1.52-2.21-2.6-3.98-2.6-2.47,0-4.43,1.96-4.43,4.37v13.4h-12.51v-28.26h12.51v1.71c2.09-1.08,4.36-1.71,6.89-1.71,3.42,0,6.51,1.2,8.98,3.16Z"></path>
      <path class="cls-1" d="M114.36,10.35c-7.84,0-14.16,6.32-14.16,14.09s6.32,14.16,14.16,14.16h2.97l3.04-6.44v6.44h12.58V10.35h-18.59ZM120.37,28.11h-3.98c-2.03,0-3.67-1.64-3.67-3.67s1.64-3.6,3.67-3.6h3.98v7.27Z"></path>
      <path class="cls-1" d="M102.95,46.1c-7.84,0-14.16,6.32-14.16,14.1s6.32,14.16,14.16,14.16h2.97l3.03-6.45v6.45h12.58v-28.26h-18.58ZM108.95,63.86h-3.98c-2.02,0-3.66-1.64-3.66-3.66s1.64-3.61,3.66-3.61h3.98v7.27Z"></path>
      <path class="cls-1" d="M74.34,16.8c-.02.19-.03.39-.04.58v.18c0-.06,0-.13,0-.19.01-.38.05-.76.12-1.13-.04.19-.07.37-.09.56ZM80.42,24.88c-.78-.2-1.51-.5-2.18-.88-.18-.1-.35-.21-.52-.32.16.12.33.23.51.33.67.38,1.41.68,2.18.88.38.1.76.17,1.15.22-.39-.06-.77-.13-1.14-.23ZM85.18,24.86c-.77.21-1.58.32-2.42.32-.41,0-.81-.03-1.2-.07.39.05.79.08,1.19.08.85,0,1.66-.11,2.42-.32.2-.05.39-.11.59-.19-.19.07-.39.13-.58.18ZM85.76,24.68c.37-.12.73-.28,1.08-.44-.34.17-.71.32-1.08.44ZM87.36,23.95c-.17.1-.34.19-.51.28.18-.08.35-.17.51-.27.17-.1.35-.21.51-.33-.16.11-.34.22-.51.32ZM87.36,23.95c-.17.1-.34.19-.51.28.18-.08.35-.17.51-.27.17-.1.35-.21.51-.33-.16.11-.34.22-.51.32ZM85.76,24.68c.37-.12.73-.28,1.08-.44-.34.17-.71.32-1.08.44ZM85.18,24.86c-.77.21-1.58.32-2.42.32-.41,0-.81-.03-1.2-.07.39.05.79.08,1.19.08.85,0,1.66-.11,2.42-.32.2-.05.39-.11.59-.19-.19.07-.39.13-.58.18ZM80.42,24.88c-.78-.2-1.51-.5-2.18-.88-.18-.1-.35-.21-.52-.32.16.12.33.23.51.33.67.38,1.41.68,2.18.88.38.1.76.17,1.15.22-.39-.06-.77-.13-1.14-.23ZM74.34,16.8c-.02.19-.03.39-.04.58v.18c0-.06,0-.13,0-.19.01-.38.05-.76.12-1.13-.04.19-.07.37-.09.56ZM74.34,16.8c-.02.19-.03.39-.04.58v.18c0-.06,0-.13,0-.19.01-.38.05-.76.12-1.13-.04.19-.07.37-.09.56ZM80.42,24.88c-.78-.2-1.51-.5-2.18-.88-.18-.1-.35-.21-.52-.32.16.12.33.23.51.33.67.38,1.41.68,2.18.88.38.1.76.17,1.15.22-.39-.06-.77-.13-1.14-.23ZM85.18,24.86c-.77.21-1.58.32-2.42.32-.41,0-.81-.03-1.2-.07.39.05.79.08,1.19.08.85,0,1.66-.11,2.42-.32.2-.05.39-.11.59-.19-.19.07-.39.13-.58.18ZM85.76,24.68c.37-.12.73-.28,1.08-.44-.34.17-.71.32-1.08.44ZM87.36,23.95c-.17.1-.34.19-.51.28.18-.08.35-.17.51-.27.17-.1.35-.21.51-.33-.16.11-.34.22-.51.32ZM87.36,23.95c-.17.1-.34.19-.51.28.18-.08.35-.17.51-.27.17-.1.35-.21.51-.33-.16.11-.34.22-.51.32ZM86.84,24.24c-.34.17-.71.32-1.08.44.37-.12.73-.28,1.08-.44ZM82.76,25.18c-.41,0-.81-.03-1.2-.07.39.05.79.08,1.19.08.85,0,1.66-.11,2.42-.32.2-.05.39-.11.59-.19-.19.07-.39.13-.58.18-.77.21-1.58.32-2.42.32ZM78.24,24c-.18-.1-.35-.21-.52-.32.16.12.33.23.51.33.67.38,1.41.68,2.18.88.38.1.76.17,1.15.22-.39-.06-.77-.13-1.14-.23-.78-.2-1.51-.5-2.18-.88ZM74.3,17.38v.18c0-.06,0-.13,0-.19.01-.38.05-.76.12-1.13-.04.19-.07.37-.09.56s-.03.39-.04.58ZM94.39,27.48c2.79-2.46,4.55-6,4.55-9.93,0-7.27-5.94-13.2-13.2-13.2h-19.8v43.43h13.28v-17.07h3.04l4.49,7.58h14.09l-6.45-10.81ZM93.47,17.56c0,1.38-.3,2.71-.89,3.96-.85,1.81-2.26,3.33-4.08,4.39-.84.5-1.76.88-2.74,1.15-.95.26-1.97.39-3.01.39-.98,0-1.96-.12-2.91-.37-.96-.24-1.88-.62-2.73-1.1-1.85-1.06-3.29-2.59-4.17-4.42-.6-1.27-.91-2.61-.91-4,0-.1,0-.2.01-.3.17-5.38,4.86-9.59,10.71-9.59s10.52,4.2,10.72,9.56v.33ZM86.85,24.23c.18-.08.35-.17.51-.27.17-.1.35-.21.51-.33-.16.11-.34.22-.51.32-.17.1-.34.19-.51.28ZM86.84,24.24c-.34.17-.71.32-1.08.44.37-.12.73-.28,1.08-.44ZM82.76,25.18c-.41,0-.81-.03-1.2-.07.39.05.79.08,1.19.08.85,0,1.66-.11,2.42-.32.2-.05.39-.11.59-.19-.19.07-.39.13-.58.18-.77.21-1.58.32-2.42.32ZM78.24,24c-.18-.1-.35-.21-.52-.32.16.12.33.23.51.33.67.38,1.41.68,2.18.88.38.1.76.17,1.15.22-.39-.06-.77-.13-1.14-.23-.78-.2-1.51-.5-2.18-.88ZM74.3,17.38v.18c0-.06,0-.13,0-.19.01-.38.05-.76.12-1.13-.04.19-.07.37-.09.56s-.03.39-.04.58ZM74.34,16.8c-.02.19-.03.39-.04.58v.18c0-.06,0-.13,0-.19.01-.38.05-.76.12-1.13-.04.19-.07.37-.09.56ZM80.42,24.88c-.78-.2-1.51-.5-2.18-.88-.18-.1-.35-.21-.52-.32.16.12.33.23.51.33.67.38,1.41.68,2.18.88.38.1.76.17,1.15.22-.39-.06-.77-.13-1.14-.23ZM85.18,24.86c-.77.21-1.58.32-2.42.32-.41,0-.81-.03-1.2-.07.39.05.79.08,1.19.08.85,0,1.66-.11,2.42-.32.2-.05.39-.11.59-.19-.19.07-.39.13-.58.18ZM85.76,24.68c.37-.12.73-.28,1.08-.44-.34.17-.71.32-1.08.44ZM87.36,23.95c-.17.1-.34.19-.51.28.18-.08.35-.17.51-.27.17-.1.35-.21.51-.33-.16.11-.34.22-.51.32ZM87.36,23.95c-.17.1-.34.19-.51.28.18-.08.35-.17.51-.27.17-.1.35-.21.51-.33-.16.11-.34.22-.51.32ZM85.76,24.68c.37-.12.73-.28,1.08-.44-.34.17-.71.32-1.08.44ZM85.18,24.86c-.77.21-1.58.32-2.42.32-.41,0-.81-.03-1.2-.07.39.05.79.08,1.19.08.85,0,1.66-.11,2.42-.32.2-.05.39-.11.59-.19-.19.07-.39.13-.58.18ZM80.42,24.88c-.78-.2-1.51-.5-2.18-.88-.18-.1-.35-.21-.52-.32.16.12.33.23.51.33.67.38,1.41.68,2.18.88.38.1.76.17,1.15.22-.39-.06-.77-.13-1.14-.23ZM74.34,16.8c-.02.19-.03.39-.04.58v.18c0-.06,0-.13,0-.19.01-.38.05-.76.12-1.13-.04.19-.07.37-.09.56ZM74.34,16.8c-.02.19-.03.39-.04.58v.18c0-.06,0-.13,0-.19.01-.38.05-.76.12-1.13-.04.19-.07.37-.09.56ZM80.42,24.88c-.78-.2-1.51-.5-2.18-.88-.18-.1-.35-.21-.52-.32.16.12.33.23.51.33.67.38,1.41.68,2.18.88.38.1.76.17,1.15.22-.39-.06-.77-.13-1.14-.23ZM85.18,24.86c-.77.21-1.58.32-2.42.32-.41,0-.81-.03-1.2-.07.39.05.79.08,1.19.08.85,0,1.66-.11,2.42-.32.2-.05.39-.11.59-.19-.19.07-.39.13-.58.18ZM85.76,24.68c.37-.12.73-.28,1.08-.44-.34.17-.71.32-1.08.44ZM87.36,23.95c-.17.1-.34.19-.51.28.18-.08.35-.17.51-.27.17-.1.35-.21.51-.33-.16.11-.34.22-.51.32ZM87.36,23.95c-.17.1-.34.19-.51.28.18-.08.35-.17.51-.27.17-.1.35-.21.51-.33-.16.11-.34.22-.51.32ZM85.76,24.68c.37-.12.73-.28,1.08-.44-.34.17-.71.32-1.08.44ZM85.18,24.86c-.77.21-1.58.32-2.42.32-.41,0-.81-.03-1.2-.07.39.05.79.08,1.19.08.85,0,1.66-.11,2.42-.32.2-.05.39-.11.59-.19-.19.07-.39.13-.58.18ZM80.42,24.88c-.78-.2-1.51-.5-2.18-.88-.18-.1-.35-.21-.52-.32.16.12.33.23.51.33.67.38,1.41.68,2.18.88.38.1.76.17,1.15.22-.39-.06-.77-.13-1.14-.23ZM74.34,16.8c-.02.19-.03.39-.04.58v.18c0-.06,0-.13,0-.19.01-.38.05-.76.12-1.13-.04.19-.07.37-.09.56Z"></path>
      <path class="cls-1" d="M84.65,83.64c3.67,0,6.64,2.98,6.64,6.64s-2.97,6.64-6.64,6.64H25.11c-1.47,0-2.67-1.19-2.67-2.67,0-2.93,1.19-5.58,3.11-7.5s4.57-3.11,7.5-3.11h14.47l8.02-9.34,11.95-13.93c1.92-2.24,5.3-2.5,7.54-.58,1.23,1.06,1.87,2.56,1.87,4.06,0,1.24-.43,2.47-1.29,3.48l-5.98,6.97-8.01,9.34h23.03Z"></path>
      <path class="cls-1" d="M91.2,17.31c-.07-1.79-.81-3.43-2.02-4.7-.08-.09-.17-.18-.26-.26-.58-.56-1.25-1.04-1.99-1.42-1.23-.64-2.65-1-4.17-1-.47,0-.94.04-1.39.11-.33.05-.64.11-.95.19-.41.1-.8.24-1.18.39-.64.27-1.24.6-1.79,1-.63.46-1.18.99-1.64,1.59-.46.59-.83,1.24-1.08,1.95-.12.35-.22.71-.3,1.08-.07.37-.11.75-.12,1.13,0,.06,0,.13,0,.19,0,1.07.25,2.1.69,3.02.34.7.79,1.35,1.34,1.93.41.44.87.84,1.39,1.17.17.11.34.22.52.32.67.38,1.4.68,2.18.88.37.1.75.17,1.14.23.39.04.79.07,1.2.07.84,0,1.65-.11,2.42-.32.19-.05.39-.11.58-.18.37-.12.73-.28,1.08-.44.01,0,.01-.01.01-.01.17-.09.34-.18.51-.28.17-.1.35-.21.51-.32.66-.46,1.25-1,1.74-1.61.25-.3.46-.62.65-.96,0-.01.01-.01.01-.01.1-.16.19-.34.27-.51.05-.11.1-.23.15-.35.08-.2.16-.42.22-.63.02-.06.04-.12.05-.18.06-.22.11-.43.15-.65.07-.38.1-.77.1-1.17,0-.08-.01-.17-.01-.25ZM86.83,21.19c-.31.99-.86,1.75-1.52,2.06-.21.09-.43.15-.66.15-.2,0-.39-.04-.58-.12-.7-.28-1.29-1.08-1.62-2.13-.18-.59-.28-1.24-.28-1.94,0-2.32,1.11-4.19,2.48-4.19s2.48,1.87,2.48,4.19c0,.71-.11,1.39-.3,1.98Z"></path>
      <path class="cls-1" d="M84.65,57.06v17.18s-.03.06-.06.06h-11.97l4.71-5.49c1.32-1.55,1.97-3.51,1.81-5.54-.15-2.03-1.09-3.88-2.63-5.2-2.24-1.91-5.48-2.43-8.35-1.04-.96.46-1.79,1.16-2.48,1.97l-13.13,15.3h-16.79C15.26,74.3-1.24,57.52.07,37.06,1.24,18.82,16.37,4.39,34.88,4.34v10.95c0,1.25,1.11,2.26,2.47,2.26s2.46-1.01,2.46-2.26V4.34h3.66v10.95c0,1.25,1.11,2.26,2.47,2.26s2.46-1.01,2.46-2.26V4.34h3.66v10.95c0,1.25,1.11,2.26,2.47,2.26s2.46-1.01,2.46-2.26V4.34h4.08v17.28c0,2.42-1.96,4.38-4.38,4.38h-15.96c-7.85,0-14.19,6.92-13.22,14.95.82,6.75,6.82,11.68,13.62,11.68h39.09c2.44,0,4.43,2,4.43,4.43Z"></path>
    </g>
    <g>
      <path class="cls-1" d="M504.4,13.03v.18c0-.06,0-.12,0-.18,0-.13.01-.26.02-.39-.02.13-.02.26-.03.39ZM504.44,12.45c-.01.06-.01.13-.01.19.01-.12.02-.24.04-.37-.02.06-.02.12-.03.18ZM505.91,8.86c-.05.07-.11.15-.16.22.08-.11.16-.21.25-.32-.03.04-.06.07-.09.1ZM507.55,7.27c-.21.15-.41.31-.6.49.38-.33.79-.63,1.23-.89-.21.13-.43.25-.63.4ZM509.34,6.27s-.03.01-.05.03c.11-.04.22-.09.33-.13-.1.03-.19.06-.28.1ZM509.34,6.27s-.03.01-.05.03c.11-.04.22-.09.33-.13-.1.03-.19.06-.28.1ZM506.95,7.76c.38-.33.79-.63,1.23-.89-.21.13-.43.25-.63.4-.21.15-.41.31-.6.49ZM505.75,9.08c.08-.11.16-.21.25-.32-.03.04-.06.07-.09.1-.05.07-.11.15-.16.22ZM504.43,12.64c.01-.12.02-.24.04-.37-.02.06-.02.12-.03.18-.01.06-.01.13-.01.19ZM504.4,13.21c0-.06,0-.12,0-.18,0-.13.01-.26.02-.39-.02.13-.02.26-.03.39v.18ZM524.49,23.14c2.79-2.46,4.55-6,4.55-9.93,0-7.27-5.94-13.2-13.2-13.2h-19.8v43.43h13.28v-17.07h3.04l4.49,7.58h14.09l-6.45-10.81ZM523.44,14.79c-.05.26-.11.51-.18.78-.02.11-.05.22-.09.33-.06.22-.17.51-.28.79-.08.21-.16.37-.23.52-.09.18-.19.37-.29.55-.03.06-.07.12-.1.18-.23.4-.5.78-.79,1.15-.62.77-1.36,1.46-2.22,2.05-.16.13-.41.28-.65.43-.16.1-.37.21-.6.32-.04.02-.13.06-.13.06-.38.18-.79.36-1.25.51-.27.11-.53.19-.81.26-.91.25-1.93.39-2.97.39-.48,0-.97-.03-1.48-.1-.51-.06-.98-.15-1.44-.28-.95-.24-1.87-.61-2.72-1.1-.23-.12-.46-.27-.68-.43-.62-.4-1.21-.91-1.76-1.49-.69-.74-1.28-1.58-1.72-2.49-.6-1.26-.92-2.64-.92-4.01v-.31c.02-.27.03-.48.05-.68.03-.28.07-.53.13-.8.01-.03.02-.08.03-.12.09-.44.21-.89.37-1.3.3-.86.78-1.73,1.41-2.53.57-.75,1.28-1.44,2.09-2.03.68-.49,1.43-.91,2.25-1.26.52-.21.99-.36,1.47-.49.41-.1.79-.18,1.2-.24.54-.08,1.11-.13,1.72-.13,1.82,0,3.62.43,5.21,1.24.94.48,1.79,1.09,2.53,1.81.09.08.25.24.39.39,1.56,1.63,2.49,3.83,2.58,6.11.01.17.02.26.02.34,0,.56-.05,1.08-.14,1.58ZM509.29,6.3c.11-.04.22-.09.33-.13-.1.03-.19.06-.28.1-.02.01-.03.01-.05.03ZM506.95,7.76c.38-.33.79-.63,1.23-.89-.21.13-.43.25-.63.4-.21.15-.41.31-.6.49ZM505.75,9.08c.08-.11.16-.21.25-.32-.03.04-.06.07-.09.1-.05.07-.11.15-.16.22ZM504.43,12.64c.01-.12.02-.24.04-.37-.02.06-.02.12-.03.18-.01.06-.01.13-.01.19ZM504.4,13.21c0-.06,0-.12,0-.18,0-.13.01-.26.02-.39-.02.13-.02.26-.03.39v.18ZM504.4,13.03v.18c0-.06,0-.12,0-.18,0-.13.01-.26.02-.39-.02.13-.02.26-.03.39ZM504.44,12.45c-.01.06-.01.13-.01.19.01-.12.02-.24.04-.37-.02.06-.02.12-.03.18ZM505.91,8.86c-.05.07-.11.15-.16.22.08-.11.16-.21.25-.32-.03.04-.06.07-.09.1ZM507.55,7.27c-.21.15-.41.31-.6.49.38-.33.79-.63,1.23-.89-.21.13-.43.25-.63.4ZM509.34,6.27s-.03.01-.05.03c.11-.04.22-.09.33-.13-.1.03-.19.06-.28.1ZM509.34,6.27s-.03.01-.05.03c.11-.04.22-.09.33-.13-.1.03-.19.06-.28.1ZM507.55,7.27c-.21.15-.41.31-.6.49.38-.33.79-.63,1.23-.89-.21.13-.43.25-.63.4ZM505.91,8.86c-.05.07-.11.15-.16.22.08-.11.16-.21.25-.32-.03.04-.06.07-.09.1ZM504.44,12.45c-.01.06-.01.13-.01.19.01-.12.02-.24.04-.37-.02.06-.02.12-.03.18ZM504.4,13.03v.18c0-.06,0-.12,0-.18,0-.13.01-.26.02-.39-.02.13-.02.26-.03.39Z"></path>
      <path class="cls-1" d="M514.75,79.3c3.67,0,6.64,2.98,6.64,6.64s-2.97,6.64-6.64,6.64h-59.54c-1.47,0-2.67-1.19-2.67-2.67,0-2.93,1.19-5.58,3.11-7.5s4.57-3.11,7.5-3.11h14.47l8.02-9.34,11.95-13.93c1.92-2.24,5.3-2.5,7.54-.58,1.23,1.06,1.87,2.56,1.87,4.06,0,1.24-.43,2.47-1.29,3.48l-5.98,6.97-8.01,9.34h23.03Z"></path>
      <path class="cls-1" d="M515.77,18.68s.04-.03.06-.04c.04-.03.07-.06.11-.1-.06.05-.11.09-.17.14ZM515.65,18.77s.08-.05.12-.08h0c-.06.03-.12.07-.18.11.02,0,.04,0,.06-.03ZM514.75,19.05c-.2,0-.39-.04-.58-.12-.07-.03-.13-.06-.19-.09.06.04.13.07.19.1.19.08.38.12.58.12.23,0,.45-.06.66-.15.06-.03.12-.06.18-.1h0c-.06.03-.12.06-.18.09-.21.09-.43.15-.66.15Z"></path>
      <path class="cls-1" d="M521.3,12.96h0c-.01-.23-.03-.45-.06-.66-.03-.22-.07-.44-.12-.65-.18-.81-.51-1.57-.95-2.26-.06-.08-.11-.16-.18-.25-.21-.31-.45-.6-.71-.88-.08-.09-.17-.18-.26-.26-.13-.12-.26-.24-.39-.34-.16-.15-.32-.28-.49-.39-.18-.14-.37-.26-.57-.39-.03-.02-.06-.04-.1-.06-.14-.08-.29-.16-.44-.24-.07-.04-.15-.07-.22-.1-.23-.12-.48-.22-.73-.31-.21-.09-.44-.16-.67-.22-.07-.03-.15-.05-.22-.06-.15-.04-.3-.08-.46-.1-.13-.04-.26-.06-.39-.08-.17-.03-.34-.05-.51-.06-.09-.02-.17-.03-.26-.03-.22-.02-.45-.03-.68-.03h-.04c-.28,0-.56.01-.84.04-.18.01-.35.03-.53.06h-.01c-.1.02-.2.03-.29.05-.22.04-.45.09-.66.14-.04.01-.07.02-.11.03s-.07.02-.1.03c-.24.07-.47.15-.69.23-.19.07-.38.15-.56.24-.03,0-.06.03-.09.04-.06.03-.11.05-.17.08-.01,0-.01.01-.02.01-.13.07-.26.13-.39.21-.07.03-.13.07-.19.11,0,0,0,0-.02.01-.44.26-.85.56-1.23.89-.09.08-.19.17-.28.26-.24.23-.46.48-.67.74-.09.11-.17.21-.25.32-.1.13-.18.26-.26.39-.13.21-.25.43-.36.65-.05.11-.1.21-.15.32-.06.12-.11.24-.15.37-.04.11-.08.23-.11.35-.04.1-.07.21-.09.31-.04.12-.07.25-.09.37,0,.02-.01.04-.01.05-.03.13-.05.25-.06.38-.02.13-.03.25-.04.37,0,.13-.02.26-.02.39,0,.06,0,.12,0,.18,0,1.07.25,2.1.69,3.02.34.7.79,1.35,1.34,1.93.16.17.32.33.5.49.11.1.23.19.34.29.09.07.18.14.27.2.09.07.18.13.28.19.1.08.21.15.32.2.06.06.13.09.19.13.67.38,1.41.68,2.18.88.38.1.76.17,1.15.22.39.05.79.08,1.19.08.85,0,1.66-.11,2.42-.32.03-.01.06-.02.09-.02.11-.03.21-.06.32-.1.06-.02.12-.05.18-.07.37-.12.73-.28,1.08-.44h0c.17-.09.34-.18.51-.28.11-.06.21-.13.32-.2.07-.04.13-.08.19-.13.15-.11.28-.23.43-.34.16-.13.33-.25.48-.39.3-.27.57-.56.83-.87h0c.25-.31.47-.63.66-.97h0c.1-.17.19-.34.27-.51.05-.12.1-.23.15-.35h0c.08-.21.16-.43.22-.64.02-.06.04-.12.05-.18.06-.22.11-.42.15-.64h0c.03-.17.05-.34.07-.51.02-.22.03-.44.03-.67,0-.08-.01-.17-.01-.25ZM516.93,16.84h0c-.05.17-.11.33-.17.47-.08.2-.17.38-.27.55-.13.19-.25.36-.39.51h0c-.05.07-.11.12-.16.17-.04.04-.07.07-.11.1-.02.01-.04.03-.06.05-.04.03-.08.05-.12.08-.02.01-.04.03-.06.04-.06.04-.12.07-.18.1-.21.09-.43.15-.66.15-.2,0-.39-.04-.58-.12-.06-.03-.13-.06-.19-.1h-.01c-.06-.04-.11-.07-.16-.1-.01-.01-.02-.02-.03-.02-.05-.04-.09-.08-.14-.11-.07-.07-.14-.13-.2-.2-.1-.1-.18-.21-.27-.33-.08-.12-.16-.24-.24-.38-.07-.12-.13-.25-.19-.38-.07-.16-.13-.34-.19-.52-.18-.59-.28-1.24-.28-1.94,0-.17.01-.33.02-.49,0-.11.01-.21.03-.31,0-.03,0-.06.01-.09.01-.12.03-.24.05-.35.05-.28.12-.55.21-.79.02-.11.06-.21.11-.31.1-.28.23-.53.38-.75.05-.08.1-.16.16-.23.1-.14.21-.26.33-.36.07-.06.13-.12.21-.17.07-.06.15-.11.23-.14.04-.03.09-.05.14-.07.03,0,.07-.02.1-.03.07-.03.15-.05.22-.06.09-.02.19-.03.28-.03s.19.01.28.03c.07.01.15.03.22.06.03.01.07.02.1.03.05.02.1.04.14.07.08.03.16.08.23.14.08.05.14.11.21.17.12.1.23.22.33.36.06.07.11.15.16.23.15.22.28.47.38.75.05.1.09.2.11.31.09.24.16.51.21.79.02.11.04.23.05.35,0,.03,0,.06,0,.09.02.1.03.2.03.31.01.16.02.32.02.49,0,.71-.11,1.39-.3,1.98Z"></path>
      <path class="cls-1" d="M514.75,52.72v17.18s-.03.06-.06.06h-11.97l4.71-5.49c1.32-1.55,1.97-3.51,1.81-5.54-.15-2.03-1.09-3.88-2.63-5.2-2.24-1.91-5.48-2.43-8.35-1.04-.96.46-1.79,1.16-2.48,1.97l-13.13,15.3h-16.79c-20.5,0-37-16.78-35.69-37.24C431.34,14.48,446.47.05,464.98,0v10.95c0,1.25,1.11,2.26,2.47,2.26s2.46-1.01,2.46-2.26V0h3.66v10.95c0,1.25,1.11,2.26,2.47,2.26s2.46-1.01,2.46-2.26V0h3.66v10.95c0,1.25,1.11,2.26,2.47,2.26s2.46-1.01,2.46-2.26V0h4.08v17.28c0,2.42-1.96,4.38-4.38,4.38h-15.96c-7.85,0-14.19,6.92-13.22,14.95.82,6.75,6.82,11.68,13.62,11.68h39.09c2.44,0,4.43,2,4.43,4.43Z"></path>
    </g>
    <path class="cls-1" d="M110.79,58.53c-.07-1.79-.81-3.43-2.02-4.7-.08-.09-.17-.18-.26-.26-.58-.56-1.25-1.04-1.99-1.42-1.23-.64-2.65-1-4.17-1-.47,0-.94.04-1.39.11-.33.05-.64.11-.95.19-.41.1-.8.24-1.18.39-.64.27-1.24.6-1.79,1-.63.46-1.18.99-1.64,1.59-.46.59-.83,1.24-1.08,1.95-.13.33-.22.68-.29,1.03,0,.02,0,.03-.01.05-.04.19-.07.37-.09.56s-.03.39-.04.58v.18c0,1.07.25,2.1.69,3.02.34.7.79,1.35,1.34,1.93.41.44.87.84,1.39,1.17.16.12.33.23.51.33.67.38,1.41.68,2.18.88.38.1.76.17,1.15.22s.79.08,1.19.08c.85,0,1.66-.11,2.42-.32.2-.05.39-.11.59-.19.37-.12.73-.28,1.08-.44.01,0,.01-.01.01-.01.18-.08.35-.17.51-.27.17-.1.35-.21.51-.33.66-.46,1.25-1,1.74-1.61.25-.3.46-.62.65-.96,0-.01.01-.01.01-.01.1-.16.19-.34.27-.51.05-.11.1-.23.15-.35.08-.2.16-.42.22-.63.02-.06.04-.12.05-.18.06-.22.11-.43.15-.65.07-.38.1-.77.1-1.17,0-.08-.01-.17-.01-.25ZM106.42,62.41c-.31.99-.86,1.75-1.52,2.06-.21.09-.43.15-.66.15-.2,0-.39-.04-.58-.12-.7-.28-1.29-1.08-1.62-2.13-.18-.59-.28-1.24-.28-1.94,0-2.32,1.11-4.19,2.48-4.19s2.48,1.87,2.48,4.19c0,.71-.11,1.39-.3,1.98Z"></path>
    <g>
      <polygon class="cls-2" points="293.91 234.44 293.91 262.69 281.4 262.69 281.4 244.93 281.4 234.44 293.91 234.44"></polygon>
      <path class="cls-2" d="M287.65,220.03c3.48,0,6.26,2.84,6.26,6.32s-2.78,6.26-6.26,6.26-6.25-2.85-6.25-6.26,2.78-6.32,6.25-6.32Z"></path>
      <path class="cls-2" d="M279.5,252.2v10.49h-14.35c-6.85,0-12.55-4.84-13.87-11.3-.19-.92-.29-1.87-.29-2.85s.1-1.92.29-2.84c1.32-6.42,7.02-11.26,13.87-11.26h14.35v10.49h-12.32c-2.03,0-3.67,1.65-3.67,3.61s1.64,3.66,3.67,3.66h12.32Z"></path>
      <path class="cls-2" d="M249.1,252.2v10.49h-14.35c-7.83,0-14.16-6.32-14.16-14.15s6.33-14.1,14.16-14.1h14.35v10.49h-12.32c-2.03,0-3.67,1.65-3.67,3.61s1.64,3.66,3.67,3.66h12.32Z"></path>
      <path class="cls-2" d="M218.7,234.44v28.25h-12.51v-1.7c-2.03,1.07-4.37,1.7-6.83,1.7-8.03,0-14.48-6.44-14.48-14.47v-13.78h12.52v13.4c0,2.4,1.96,4.36,4.42,4.36s4.37-1.96,4.37-4.36v-13.4h12.51Z"></path>
      <path class="cls-2" d="M199.78,197.86c-8.22,0-14.92,6.7-14.92,14.92s6.7,14.98,14.92,14.98,14.92-6.7,14.92-14.98-6.64-14.92-14.92-14.92ZM205.73,212.88c0,.75-.17,1.46-.47,2.1-.47.99-1.25,1.83-2.24,2.41-.47.27-.99.49-1.54.64-.54.15-1.11.22-1.7.22s-1.13-.07-1.65-.2c-.55-.15-1.07-.36-1.54-.62-1-.58-1.81-1.42-2.29-2.42-.31-.65-.48-1.37-.48-2.13v-.13c.08-2.91,2.72-5.24,5.96-5.24s5.84,2.31,5.95,5.2v.17Z"></path>
      <path class="cls-2" d="M202.7,212.01c0,.5-.07.97-.21,1.39-.22.7-.61,1.24-1.07,1.45-.15.07-.31.11-.47.11-.14,0-.27-.03-.4-.08-.5-.21-.91-.76-1.14-1.51-.13-.41-.2-.87-.2-1.36,0-1.63.78-2.96,1.74-2.96s1.75,1.33,1.75,2.96Z"></path>
      <path class="cls-2" d="M182.99,262.69l-.03-56.13h-12.51l.03,27.88h-6.01c-7.84,0-14.16,6.32-14.16,14.1s6.32,14.15,14.16,14.15h2.97l3.04-6.44v6.44h12.51ZM166.49,252.2c-2.02,0-3.66-1.64-3.66-3.66s1.64-3.61,3.66-3.61h3.99v7.27h-3.99Z"></path>
      <path class="cls-2" d="M176.7,190.56c3.48,0,6.26,2.85,6.26,6.33s-2.78,6.25-6.26,6.25-6.25-2.84-6.25-6.25,2.78-6.33,6.25-6.33Z"></path>
      <path class="cls-2" d="M156.04,191.16v7.53h-6.01c-7.84,0-14.16,6.32-14.16,14.09s6.32,14.16,14.16,14.16h2.97l3.04-6.45v6.45h12.51v-35.78h-12.51ZM156.04,216.45h-3.98c-2.03,0-3.67-1.64-3.67-3.67s1.64-3.6,3.67-3.6h3.98v7.27Z"></path>
      <path class="cls-2" d="M152.84,237.6l-7.46,9.92c-.69-1.51-2.21-2.59-3.98-2.59-2.46,0-4.42,1.96-4.42,4.36v13.4h-12.52v-28.25h12.52v1.71c2.08-1.08,4.36-1.71,6.89-1.71,3.41,0,6.51,1.2,8.97,3.16Z"></path>
      <path class="cls-2" d="M115.4,198.69c-7.84,0-14.16,6.32-14.16,14.09s6.32,14.16,14.16,14.16h2.97l3.03-6.45v6.45h12.58v-28.25h-18.58ZM121.4,216.45h-3.98c-2.02,0-3.67-1.64-3.67-3.67s1.65-3.6,3.67-3.6h3.98v7.27Z"></path>
      <path class="cls-2" d="M103.98,234.44c-7.83,0-14.16,6.32-14.16,14.1s6.33,14.15,14.16,14.15h2.97l3.04-6.44v6.44h12.58v-28.25h-18.59ZM109.99,252.2h-3.98c-2.03,0-3.67-1.64-3.67-3.66s1.64-3.61,3.67-3.61h3.98v7.27Z"></path>
      <path class="cls-2" d="M95.43,215.82c2.79-2.46,4.55-6,4.55-9.93,0-7.27-5.94-13.2-13.2-13.2h-19.8v43.43h13.28v-17.07h3.04l4.49,7.58h14.09l-6.45-10.81ZM92.24,205.89c0,1.06-.23,2.07-.67,2.99-.66,1.4-1.77,2.59-3.18,3.41-.66.39-1.4.7-2.18.91-.76.21-1.58.32-2.42.32s-1.6-.1-2.34-.3c-.78-.2-1.51-.5-2.18-.88-1.43-.82-2.57-2.01-3.25-3.43-.44-.92-.68-1.95-.68-3.02v-.18c.11-4.13,3.85-7.44,8.45-7.44s8.3,3.28,8.45,7.37v.25Z"></path>
      <path class="cls-2" d="M85.69,271.98c3.67,0,6.64,2.98,6.64,6.64s-2.97,6.64-6.64,6.64H26.15c-1.47,0-2.67-1.19-2.67-2.67,0-2.93,1.19-5.58,3.11-7.5s4.57-3.11,7.5-3.11h14.47l8.02-9.34,11.95-13.93c1.92-2.24,5.3-2.5,7.54-.58,1.23,1.06,1.87,2.56,1.87,4.06,0,1.24-.43,2.47-1.29,3.48l-5.98,6.97-8.01,9.34h23.03Z"></path>
      <path class="cls-2" d="M88.16,207.54c0,.72-.1,1.39-.29,1.98-.32,1-.87,1.76-1.53,2.06-.21.1-.43.15-.66.15-.19,0-.39-.04-.57-.11-.71-.29-1.3-1.08-1.62-2.14-.18-.58-.29-1.24-.29-1.94,0-2.31,1.11-4.19,2.48-4.19s2.48,1.88,2.48,4.19Z"></path>
      <path class="cls-2" d="M85.69,245.4v17.18s-.03.06-.06.06h-11.97l4.71-5.49c1.32-1.55,1.97-3.51,1.81-5.54-.15-2.03-1.09-3.88-2.63-5.2-2.24-1.91-5.49-2.43-8.36-1.04-.96.46-1.78,1.16-2.48,1.97l-13.12,15.3h-16.79c-20.5,0-37-16.78-35.69-37.24,1.17-18.24,16.3-32.67,34.81-32.72v10.95c0,1.25,1.11,2.26,2.47,2.26s2.46-1.01,2.46-2.26v-10.95h3.66v10.95c0,1.25,1.11,2.26,2.47,2.26s2.46-1.01,2.46-2.26v-10.95h3.66v10.95c0,1.25,1.11,2.26,2.47,2.26s2.46-1.01,2.46-2.26v-10.95h4.08v17.28c0,2.42-1.97,4.38-4.39,4.38h-15.95c-7.85,0-14.19,6.92-13.22,14.95.82,6.75,6.82,11.68,13.62,11.68h39.08c2.44,0,4.44,2,4.44,4.43Z"></path>
    </g>
    <g>
      <path class="cls-2" d="M492.44,212.97c2.79-2.46,4.55-6,4.55-9.93,0-7.27-5.94-13.2-13.2-13.2h-19.8v43.43h13.28v-17.07h3.04l4.49,7.58h14.09l-6.45-10.81ZM489.25,203.04c0,1.06-.23,2.07-.67,2.99-.66,1.4-1.77,2.59-3.18,3.41-.66.39-1.4.7-2.18.91-.76.21-1.58.32-2.42.32s-1.6-.1-2.34-.3c-.78-.2-1.51-.5-2.18-.88-1.43-.82-2.57-2.01-3.25-3.43-.44-.92-.68-1.95-.68-3.02v-.18c.11-4.13,3.85-7.44,8.45-7.44s8.3,3.28,8.45,7.37v.25Z"></path>
      <path class="cls-2" d="M482.7,269.13c3.67,0,6.64,2.98,6.64,6.64s-2.97,6.64-6.64,6.64h-59.54c-1.47,0-2.67-1.19-2.67-2.67,0-2.93,1.19-5.58,3.11-7.5s4.57-3.11,7.5-3.11h14.47l8.02-9.34,11.95-13.93c1.92-2.24,5.3-2.5,7.54-.58,1.23,1.06,1.87,2.56,1.87,4.06,0,1.24-.43,2.47-1.29,3.48l-5.98,6.97-8.01,9.34h23.03Z"></path>
      <path class="cls-2" d="M485.17,204.69c0,.72-.1,1.39-.29,1.98-.32,1-.87,1.76-1.53,2.06-.21.1-.43.15-.66.15-.19,0-.39-.04-.57-.11-.71-.29-1.3-1.08-1.62-2.14-.18-.58-.29-1.24-.29-1.94,0-2.31,1.11-4.19,2.48-4.19s2.48,1.88,2.48,4.19Z"></path>
      <path class="cls-2" d="M482.7,242.55v17.18s-.03.06-.06.06h-11.97l4.71-5.49c1.32-1.55,1.97-3.51,1.81-5.54-.15-2.03-1.09-3.88-2.63-5.2-2.24-1.91-5.49-2.43-8.36-1.04-.96.46-1.78,1.16-2.48,1.97l-13.12,15.3h-16.79c-20.5,0-37-16.78-35.69-37.24,1.17-18.24,16.3-32.67,34.81-32.72v10.95c0,1.25,1.11,2.26,2.47,2.26s2.46-1.01,2.46-2.26v-10.95h3.66v10.95c0,1.25,1.11,2.26,2.47,2.26s2.46-1.01,2.46-2.26v-10.95h3.66v10.95c0,1.25,1.11,2.26,2.47,2.26s2.46-1.01,2.46-2.26v-10.95h4.08v17.28c0,2.42-1.97,4.38-4.39,4.38h-15.95c-7.85,0-14.19,6.92-13.22,14.95.82,6.75,6.82,11.68,13.62,11.68h39.08c2.44,0,4.44,2,4.44,4.43Z"></path>
    </g>
  </g>
</svg>